<?xml version="1.0" encoding="utf-8"?>
<!-- Generator: Adobe Illustrator 24.0.2, SVG Export Plug-In . SVG Version: 6.00 Build 0)  -->
<svg version="1.1" id="Calque_1" xmlns="http://www.w3.org/2000/svg" xmlns:xlink="http://www.w3.org/1999/xlink" x="0px" y="0px"
	 viewBox="0 0 1080 1080" style="enable-background:new 0 0 1080 1080;" xml:space="preserve">
<style type="text/css">
	.st0{fill:none;}
	.st1{fill:#D50164;}
</style>
<g>
	<g id="XMLID_28_">
		<path id="XMLID_29_" class="st0" d="M488.09,497.92c3.8-16.68,4.67-33.76,1.04-49.42c-3.6-21.12-11.85-38.86-24.58-54.24
			c-26.17-31.68-60.25-46.23-101.13-44.7c-5.82,0.21-11.88,0.47-17.49,2.75c-6.59,2.64-10.26,10.15-8.27,17.12
			c2.01,6.93,9.38,11.59,16.23,10.29c40.2-7.73,80.17,12.06,99.13,49.48c7.07,13.94,10.02,28.82,9.39,44.48
			c-1.28,32.55-20.64,62.61-49.18,77.24c-19.21,9.82-39.5,12.66-60.65,8.57c-9.34-1.81-17.15,2.83-18.56,11.55
			c-1.36,8.24,5.42,16.7,14.18,17.39c11.92,0.93,23.78,2.34,35.88,0.88c18.81-2.27,36.21-8.18,52.04-18.5
			c17.6-11.48,31.31-26.57,41.23-45.15C482.05,516.79,485.92,507.47,488.09,497.92z"/>
		<path id="XMLID_49_" class="st0" d="M379.59,492.94c2.64-1.94,5.45-3.73,7.47-6.45c8.94-12,1.73-33.1-15.38-34.33
			c-8.36-0.62-15.47,1.75-19.94,9.02c-7.42,11.97-14.52,24.17-21.56,36.43c-5.68,9.88-10.7,20.21-16.67,29.88
			c-3.97,6.45-7.53,13.15-11.93,20.4c1.52-0.79,2.23-1.03,2.83-1.47c19.76-13.69,39.47-27.44,58.87-41.67
			C368.69,500.78,374.2,496.97,379.59,492.94z M368.06,466.49c3.56-1.24,6.63,0.29,7.84,3.86c1.02,3.14-0.84,6.59-4.08,7.62
			c-3.21,0.99-6.5-0.74-7.51-4.03C363.41,471.04,365.21,467.45,368.06,466.49z"/>
		<path id="XMLID_52_" class="st1" d="M524.13,478.71c7.48-35.4,0.25-67.49-25.59-93.66c-35.15-35.68-79.66-52.27-128.11-60.14
			c-32.95-5.37-65.99-5.37-99.03-1.72c-24.58,2.69-48.73,7.76-72.86,14.02c0,0,50.14,17.2,60.29,24.5c0,0-22.47-8.12-72.35-0.63
			l-0.01,0.03c-29.32,3.69-57.43,12.61-83.94,28.54c13.78,0.26,27.16,1.64,40.02,7.02c-8.59,4.53-16.97,8.65-25.81,11.05
			c-16.27,4.47-30.85,11.95-43.74,22.55c-20.62,17.03-33.65,38.1-33.71,67.5c2.08-1.17,47.28-26.45,95.38-28.08
			c-0.27,2.09-2.83,3.49-4.5,5.18c-19.59,19.62-35.77,41.46-42.94,68.82c-2.33,8.99-2.82,11.45,1.86,10.98l0,0
			c1.75-0.18,4.19-0.75,7.55-1.56c0.03-0.13,0.08-0.21,0.11-0.34l84.35-20.9c0,0-15.01,12.84-19.24,16.59
			c-0.08,0.07-0.17,0.15-0.25,0.22c-0.27,0.24-0.49,0.44-0.64,0.58c-0.01,0.01,0,0.02-0.01,0.03
			c-17.84,16.1-32.11,42.54-34.03,61.94c7.93-5.56,16.22-10.57,25.25-14.64c19.54-8.8,39.98-15.13,60.19-22.14
			c2.41-0.85,6.44-2.68,8.16,0.54c0.94,1.74-0.29,5.22-1.44,7.42c-6.09,11.4-11.8,23.05-18.96,33.71c-4.42,6.53-1.86,7.86,3.65,9.15
			c11.93,2.73,23.75,6.61,35.82,7.94c50.26,5.55,99.72,2.68,148.34-13.41c31.53-10.45,59.41-26.7,83.37-48.87
			C498.23,546.02,516.5,515.05,524.13,478.71z M301.58,547.89c4.4-7.25,7.96-13.95,11.93-20.4c5.97-9.68,10.99-20.01,16.67-29.88
			c7.04-12.26,14.14-24.46,21.56-36.43c4.47-7.27,11.58-9.64,19.94-9.02c17.11,1.23,24.32,22.33,15.38,34.33
			c-2.02,2.73-4.83,4.51-7.47,6.45c-5.39,4.04-10.9,7.85-16.31,11.81c-19.4,14.23-39.11,27.98-58.87,41.67
			C303.81,546.86,303.1,547.1,301.58,547.89z M436.11,570.8c-15.83,10.32-33.24,16.23-52.04,18.5c-12.09,1.45-23.96,0.05-35.88-0.88
			c-8.77-0.68-15.54-9.15-14.18-17.39c1.41-8.72,9.23-13.35,18.56-11.55c21.15,4.09,41.44,1.26,60.65-8.57
			c28.54-14.63,47.9-44.69,49.18-77.24c0.63-15.66-2.32-30.55-9.39-44.48c-18.96-37.43-58.93-57.21-99.13-49.48
			c-6.84,1.31-14.21-3.36-16.23-10.29c-1.98-6.97,1.68-14.48,8.27-17.12c5.61-2.27,11.67-2.53,17.49-2.75
			c40.88-1.53,74.96,13.02,101.13,44.7c12.73,15.38,20.98,33.11,24.58,54.24c3.63,15.66,2.76,32.74-1.04,49.42
			c-2.16,9.55-6.03,18.87-10.75,27.73C467.42,544.23,453.71,559.32,436.11,570.8z"/>
		<path id="XMLID_55_" class="st1" d="M371.82,477.97c3.24-1.04,5.09-4.49,4.08-7.62c-1.21-3.57-4.27-5.1-7.84-3.86
			c-2.86,0.97-4.65,4.55-3.75,7.46C365.32,477.23,368.61,478.97,371.82,477.97z"/>
		<path id="XMLID_56_" class="st1" d="M300.26,663c-2.99-0.31-2.98,1.4-3.94,3.15c-20.56,37.49-54.57,60.02-89.64,81.78
			c-8.92,5.53-19.77,9.96-24.84,20.55c-9.58,19.99-14.66,41.6-21.74,62.47c-12.49,36.83-24.85,73.8-34.96,111.33
			c-7.51,27.87-26.56,41.89-51.05,51.73c-13.52,5.43-24.87,12.93-27.61,28.7c-0.28,1.62-0.31,3.27-0.46,4.91
			c1.25,0.08,2.91,0.73,3.68,0.16c11.66-8.52,25.82-11.45,38.69-17.21c12.28-5.49,23.92-12.66,37.27-15.73
			c5.01-1.15,7.05-5.26,8.88-9.77c8.06-19.84,15.95-39.77,24.71-59.3c14-31.23,29.31-61.87,48.44-90.31
			c11.81-17.55,22.79-35.97,41.25-48.07c29.01-19.02,53.99-42.6,75.79-69.49c14.29-17.62,27.95-35.73,40.17-55.83
			C343.16,665.57,321.7,665.25,300.26,663z"/>
		<path id="XMLID_57_" class="st1" d="M791.33,723.86c0.84-11.31-8.13-12.76-14.33-14.76c-27.67-8.96-54.86-19.48-83.73-24.69
			c-22.89-4.14-45.67-7.32-68.96-5.72c-15.11,2.81-30.21,5.62-45.32,8.43c-13.59,4.11-27.12,8.45-40.79,12.29
			c-24.21,6.8-37.24-1.22-49.53-22.26c-8.77-15.01-15.48-30.84-20.65-47.38c-1.7-5.45-3.84-6.76-9.59-3.19
			c-6.81,4.24-13.77,8.47-22.26,10.04c-12.63,2.34-15.55,8.82-10.22,20.5c6.16,13.49,13.16,26.58,22.82,37.96
			c13.82,16.28,28.46,31.72,44.55,45.87c5.82,5.12,9,6.64,17.02,3.16c17.28-7.51,35.72-12.33,53.63-18.41
			c8.1-2.75,16.12-5.71,24.16-8.62l-0.01,0.03c47.75-16.06,66.53-18.52,72.26-18.86c34.74,0.25,68.16,8.1,101.35,17.65
			C771.52,718.7,780.95,723.3,791.33,723.86z"/>
		<path id="XMLID_109_" class="st1" d="M391.39,209.62c17.33,44.54,45,80.25,83.28,108.86c22.34,16.7,43.63,35.08,61.39,57.02
			c15.19,18.76,28.34,38.73,29.14,63.64c1,30.97-8.23,58.73-22.06,84.91c-0.27,0.44-20.07,33.41-33.56,52.24
			c-0.17,0.12-0.31,0.27-0.49,0.38c0.02,0.09,0.02,0.16,0.03,0.25c-3,4.16-5.67,7.59-7.71,9.73l1.04,0.59c0,0,2.54-1.5,8.13-5.75
			c0.12,0,0.24,0,0.36-0.01c2.1-1.75,4.21-3.5,6.31-5.26c2-1.62,4.2-3.44,6.65-5.52l0.01-0.01c27.63-22.52,52.69-47.14,68.6-79.91
			c12.7-26.14,16.8-53.64,12.99-81.94c-4.17-30.99-18.42-58.41-35.43-84.14c-29.23-44.22-66.89-81.41-102.19-120.54
			c-14.33-15.89-27.7-32.43-35.09-52.82c-4.36-12.01-3.54-24.23,2.18-35.63c9.84-19.63,27.64-28.99,47.59-34.83
			c8.31-2.43,15.86-7.16,26.74-5.91c-14.7-13.99-26.53-16.92-46.04-11.07c-8.55,2.56-11.4,1.63-12.17-8.01
			c-1.28-15.98-9.22-25.23-21.06-24.9c-17.41,0.49-32.6,8.42-44.46,20.41c-15.97,16.16-19.71,38.07-17.91,59.25
			C370.57,144.6,378.93,177.59,391.39,209.62z"/>
	</g>
	<path id="XMLID_104_" class="st0" d="M861.77,850.13c-0.41,0-0.83,0.01-1.25,0.02c-20.55,0.69-40.8,18.16-48.14,41.53
		c-3.78,12.01-3.2,22.1,1.6,28.43c3.77,4.96,10.13,7.38,18.46,7.16c20.55-0.69,40.8-18.16,48.15-41.53c3.78-12,3.21-22.1-1.6-28.43
		C875.41,852.61,869.47,850.13,861.77,850.13z"/>
	<path id="XMLID_231_" class="st0" d="M975,846.32c-0.41,0-0.83,0.01-1.25,0.02c-20.55,0.7-40.8,18.17-48.15,41.53
		c-3.78,12.01-3.21,22.1,1.6,28.43c3.77,4.96,10.14,7.38,18.47,7.16c20.55-0.69,40.8-18.16,48.14-41.53
		c3.78-12.01,3.2-22.11-1.6-28.43C988.63,848.79,982.7,846.32,975,846.32z"/>
	<path id="XMLID_243_" class="st0" d="M309.07,916.26c2.43-7.71,2.35-13.35-0.24-16.76c-2.92-3.84-9.81-5.61-19.8-5.36l-41.75,1.41
		l-15.65,49.75l37.88-1.27C290.19,943.33,303.5,933.99,309.07,916.26z"/>
	<path id="XMLID_244_" class="st0" d="M324.88,836.81c-2.94-3.87-10.1-5.74-20.55-5.38l-37.26,1.26l-14.83,47.15l33.39-1.12
		c20.9-0.7,34.2-9.64,39.53-26.58C327.36,845.11,327.27,839.96,324.88,836.81z"/>
	<path id="XMLID_246_" class="st0" d="M767.37,889.55c3.78-12.01,3.2-22.1-1.6-28.43c-3.58-4.71-9.51-7.18-17.21-7.18
		c-0.41,0-0.83,0.01-1.25,0.02c-20.55,0.69-40.8,18.16-48.15,41.53c-3.78,12-3.21,22.1,1.6,28.42c3.77,4.96,10.15,7.35,18.47,7.16
		C739.77,930.39,760.02,912.92,767.37,889.55z"/>
	<path id="XMLID_253_" class="st1" d="M339.89,855.48c3.87-12.31,3.16-22.06-2.11-28.99c-5.77-7.6-16.65-11.21-32.38-10.65
		l-49.53,1.66l-45.31,144.07l57.89-1.95c28.4-0.95,47.65-14.93,55.67-40.41c3.59-11.4,3.26-20.67-0.98-27.55
		c-1.57-2.55-3.63-4.71-6.16-6.47C327.91,878.8,335.72,868.72,339.89,855.48z M247.29,895.55l41.75-1.41
		c9.99-0.25,16.88,1.52,19.8,5.36c2.59,3.4,2.67,9.04,0.24,16.76c-5.57,17.73-18.88,27.07-39.55,27.77l-37.88,1.27L247.29,895.55z
		 M285.62,878.71l-33.39,1.12l14.83-47.15l37.26-1.26c10.46-0.36,17.61,1.51,20.55,5.38c2.39,3.15,2.49,8.3,0.28,15.32
		C319.83,869.07,306.53,878.01,285.62,878.71z"/>
	<polygon id="XMLID_255_" class="st1" points="395.12,812.82 378.98,813.36 333.67,957.42 427.61,954.26 432.56,938.54 
		354.75,941.16 	"/>
	<polygon id="XMLID_256_" class="st1" points="599.28,805.95 572.05,806.86 490.86,865.15 508.52,809 492.38,809.54 447.07,953.61 
		463.21,953.07 482.11,892.97 531.24,950.78 552.88,950.05 493.77,881.23 	"/>
	<path id="XMLID_257_" class="st1" d="M693.04,857.77l4.88-15.52l-31.08,1.05l4.22-13.42c2.91-9.27,8.99-20.4,21.37-20.82
		c4.49-0.12,8.04,1.37,8.76,2.26l2.07,2.12l6.64-0.2l3.97-12.67l-2.86-2.36c-3.76-3.09-10.35-4.8-17.57-4.55
		c-17.21,0.58-30.76,12.63-37.18,33.06l-5.38,17.11l-17.43,0.58l-4.88,15.52l17.42-0.58l-27.83,88.5l15.96-0.54l27.84-88.5
		L693.04,857.77z"/>
	<path id="XMLID_260_" class="st1" d="M718.21,946.47c28-0.94,54.3-23.05,63.96-53.76c5.28-16.8,4-31.57-3.62-41.59
		c-6.47-8.52-17.23-12.98-30.24-12.53c-28,0.94-54.3,23.05-63.96,53.77c-5.28,16.8-4,31.57,3.62,41.59
		c6.18,8.14,16.26,12.56,28.5,12.56C717.04,946.5,717.63,946.49,718.21,946.47z M700.75,923.92c-4.81-6.33-5.38-16.42-1.6-28.42
		c7.35-23.37,27.6-40.84,48.15-41.53c0.42-0.01,0.84-0.02,1.25-0.02c7.7,0,13.64,2.47,17.21,7.18c4.81,6.33,5.38,16.42,1.6,28.43
		c-7.35,23.37-27.59,40.84-48.14,41.53C710.9,931.27,704.52,928.88,700.75,923.92z"/>
	<path id="XMLID_263_" class="st1" d="M861.53,834.77c-28,0.94-54.29,23.05-63.95,53.77c-5.28,16.8-4,31.57,3.62,41.59
		c6.19,8.14,16.26,12.56,28.49,12.56c0.58,0,1.16-0.01,1.74-0.03c28-0.94,54.3-23.05,63.96-53.76c5.28-16.8,4-31.57-3.61-41.59
		C885.3,838.78,874.53,834.29,861.53,834.77z M880.59,885.74c-7.35,23.37-27.6,40.84-48.15,41.53c-8.34,0.23-14.69-2.2-18.46-7.16
		c-4.81-6.33-5.38-16.42-1.6-28.43c7.35-23.37,27.59-40.84,48.14-41.53c0.42-0.01,0.84-0.02,1.25-0.02c7.7,0,13.64,2.47,17.22,7.18
		C883.8,863.64,884.37,873.74,880.59,885.74z"/>
	<path id="XMLID_266_" class="st1" d="M1005.4,843.99c-6.22-8.72-17.08-13.5-31-13.01c-27.78,0.93-53.93,23.03-63.59,53.75
		c-5.29,16.84-4.01,31.64,3.63,41.68c6.15,8.09,16.1,12.49,28.17,12.49c0.56,0,1.13-0.01,1.7-0.03
		c12.56-0.42,24.92-4.99,35.46-12.79l-3.06,9.72l15.78-0.53l47.57-151.27l-15.96,0.54L1005.4,843.99z M993.82,881.93
		c-7.35,23.37-27.59,40.84-48.14,41.53c-8.33,0.22-14.7-2.2-18.47-7.16c-4.81-6.33-5.38-16.42-1.6-28.43
		c7.35-23.37,27.6-40.84,48.15-41.53c0.42-0.01,0.84-0.02,1.25-0.02c7.7,0,13.63,2.47,17.21,7.18
		C997.02,859.83,997.59,869.93,993.82,881.93z"/>
</g>
</svg>
