<svg version="1.1" id="Calque_1" xmlns="http://www.w3.org/2000/svg" x="0" y="0" viewBox="0 0 1080 1080" xml:space="preserve"><style>.st0{fill:none}.st1{fill:#d50164}</style><g id="XMLID_28_"><path id="XMLID_29_" class="st0" d="M488.09 497.92c3.8-16.68 4.67-33.76 1.04-49.42-3.6-21.12-11.85-38.86-24.58-54.24-26.17-31.68-60.25-46.23-101.13-44.7-5.82.21-11.88.47-17.49 2.75-6.59 2.64-10.26 10.15-8.27 17.12 2.01 6.93 9.38 11.59 16.23 10.29 40.2-7.73 80.17 12.06 99.13 49.48 7.07 13.94 10.02 28.82 9.39 44.48-1.28 32.55-20.64 62.61-49.18 77.24-19.21 9.82-39.5 12.66-60.65 8.57-9.34-1.81-17.15 2.83-18.56 11.55-1.36 8.24 5.42 16.7 14.18 17.39 11.92.93 23.78 2.34 35.88.88 18.81-2.27 36.21-8.18 52.04-18.5 17.6-11.48 31.31-26.57 41.23-45.15 4.7-8.87 8.57-18.19 10.74-27.74z"/><path id="XMLID_49_" class="st0" d="M379.59 492.94c2.64-1.94 5.45-3.73 7.47-6.45 8.94-12 1.73-33.1-15.38-34.33-8.36-.62-15.47 1.75-19.94 9.02-7.42 11.97-14.52 24.17-21.56 36.43-5.68 9.88-10.7 20.21-16.67 29.88-3.97 6.45-7.53 13.15-11.93 20.4 1.52-.79 2.23-1.03 2.83-1.47 19.76-13.69 39.47-27.44 58.87-41.67 5.41-3.97 10.92-7.78 16.31-11.81zm-11.53-26.45c3.56-1.24 6.63.29 7.84 3.86 1.02 3.14-.84 6.59-4.08 7.62-3.21.99-6.5-.74-7.51-4.03-.9-2.9.9-6.49 3.75-7.45z"/><path id="XMLID_52_" class="st1" d="M524.13 478.71c7.48-35.4.25-67.49-25.59-93.66-35.15-35.68-79.66-52.27-128.11-60.14-32.95-5.37-65.99-5.37-99.03-1.72-24.58 2.69-48.73 7.76-72.86 14.02 0 0 50.14 17.2 60.29 24.5 0 0-22.47-8.12-72.35-.63l-.01.03c-29.32 3.69-57.43 12.61-83.94 28.54 13.78.26 27.16 1.64 40.02 7.02-8.59 4.53-16.97 8.65-25.81 11.05-16.27 4.47-30.85 11.95-43.74 22.55-20.62 17.03-33.65 38.1-33.71 67.5 2.08-1.17 47.28-26.45 95.38-28.08-.27 2.09-2.83 3.49-4.5 5.18-19.59 19.62-35.77 41.46-42.94 68.82-2.33 8.99-2.82 11.45 1.86 10.98 1.75-.18 4.19-.75 7.55-1.56.03-.13.08-.21.11-.34l84.35-20.9s-15.01 12.84-19.24 16.59l-.25.22c-.27.24-.49.44-.64.58-.01.01 0 .02-.01.03-17.84 16.1-32.11 42.54-34.03 61.94 7.93-5.56 16.22-10.57 25.25-14.64 19.54-8.8 39.98-15.13 60.19-22.14 2.41-.85 6.44-2.68 8.16.54.94 1.74-.29 5.22-1.44 7.42-6.09 11.4-11.8 23.05-18.96 33.71-4.42 6.53-1.86 7.86 3.65 9.15 11.93 2.73 23.75 6.61 35.82 7.94 50.26 5.55 99.72 2.68 148.34-13.41 31.53-10.45 59.41-26.7 83.37-48.87 26.92-24.91 45.19-55.88 52.82-92.22zm-222.55 69.18c4.4-7.25 7.96-13.95 11.93-20.4 5.97-9.68 10.99-20.01 16.67-29.88 7.04-12.26 14.14-24.46 21.56-36.43 4.47-7.27 11.58-9.64 19.94-9.02 17.11 1.23 24.32 22.33 15.38 34.33-2.02 2.73-4.83 4.51-7.47 6.45-5.39 4.04-10.9 7.85-16.31 11.81-19.4 14.23-39.11 27.98-58.87 41.67-.6.44-1.31.68-2.83 1.47zm134.53 22.91c-15.83 10.32-33.24 16.23-52.04 18.5-12.09 1.45-23.96.05-35.88-.88-8.77-.68-15.54-9.15-14.18-17.39 1.41-8.72 9.23-13.35 18.56-11.55 21.15 4.09 41.44 1.26 60.65-8.57 28.54-14.63 47.9-44.69 49.18-77.24.63-15.66-2.32-30.55-9.39-44.48-18.96-37.43-58.93-57.21-99.13-49.48-6.84 1.31-14.21-3.36-16.23-10.29-1.98-6.97 1.68-14.48 8.27-17.12 5.61-2.27 11.67-2.53 17.49-2.75 40.88-1.53 74.96 13.02 101.13 44.7 12.73 15.38 20.98 33.11 24.58 54.24 3.63 15.66 2.76 32.74-1.04 49.42-2.16 9.55-6.03 18.87-10.75 27.73-9.91 18.59-23.62 33.68-41.22 45.16z"/><path id="XMLID_55_" class="st1" d="M371.82 477.97c3.24-1.04 5.09-4.49 4.08-7.62-1.21-3.57-4.27-5.1-7.84-3.86-2.86.97-4.65 4.55-3.75 7.46 1.01 3.28 4.3 5.02 7.51 4.02z"/><path id="XMLID_56_" class="st1" d="M300.26 663c-2.99-.31-2.98 1.4-3.94 3.15-20.56 37.49-54.57 60.02-89.64 81.78-8.92 5.53-19.77 9.96-24.84 20.55-9.58 19.99-14.66 41.6-21.74 62.47-12.49 36.83-24.85 73.8-34.96 111.33-7.51 27.87-26.56 41.89-51.05 51.73-13.52 5.43-24.87 12.93-27.61 28.7-.28 1.62-.31 3.27-.46 4.91 1.25.08 2.91.73 3.68.16 11.66-8.52 25.82-11.45 38.69-17.21 12.28-5.49 23.92-12.66 37.27-15.73 5.01-1.15 7.05-5.26 8.88-9.77 8.06-19.84 15.95-39.77 24.71-59.3 14-31.23 29.31-61.87 48.44-90.31 11.81-17.55 22.79-35.97 41.25-48.07 29.01-19.02 53.99-42.6 75.79-69.49 14.29-17.62 27.95-35.73 40.17-55.83-21.74 3.5-43.2 3.18-64.64.93z"/><path id="XMLID_57_" class="st1" d="M791.33 723.86c.84-11.31-8.13-12.76-14.33-14.76-27.67-8.96-54.86-19.48-83.73-24.69-22.89-4.14-45.67-7.32-68.96-5.72l-45.32 8.43c-13.59 4.11-27.12 8.45-40.79 12.29-24.21 6.8-37.24-1.22-49.53-22.26-8.77-15.01-15.48-30.84-20.65-47.38-1.7-5.45-3.84-6.76-9.59-3.19-6.81 4.24-13.77 8.47-22.26 10.04-12.63 2.34-15.55 8.82-10.22 20.5 6.16 13.49 13.16 26.58 22.82 37.96 13.82 16.28 28.46 31.72 44.55 45.87 5.82 5.12 9 6.64 17.02 3.16 17.28-7.51 35.72-12.33 53.63-18.41 8.1-2.75 16.12-5.71 24.16-8.62l-.01.03c47.75-16.06 66.53-18.52 72.26-18.86 34.74.25 68.16 8.1 101.35 17.65 9.79 2.8 19.22 7.4 29.6 7.96z"/><path id="XMLID_109_" class="st1" d="M391.39 209.62c17.33 44.54 45 80.25 83.28 108.86 22.34 16.7 43.63 35.08 61.39 57.02 15.19 18.76 28.34 38.73 29.14 63.64 1 30.97-8.23 58.73-22.06 84.91-.27.44-20.07 33.41-33.56 52.24-.17.12-.31.27-.49.38.02.09.02.16.03.25-3 4.16-5.67 7.59-7.71 9.73l1.04.59s2.54-1.5 8.13-5.75c.12 0 .24 0 .36-.01 2.1-1.75 4.21-3.5 6.31-5.26 2-1.62 4.2-3.44 6.65-5.52l.01-.01c27.63-22.52 52.69-47.14 68.6-79.91 12.7-26.14 16.8-53.64 12.99-81.94-4.17-30.99-18.42-58.41-35.43-84.14-29.23-44.22-66.89-81.41-102.19-120.54-14.33-15.89-27.7-32.43-35.09-52.82-4.36-12.01-3.54-24.23 2.18-35.63 9.84-19.63 27.64-28.99 47.59-34.83 8.31-2.43 15.86-7.16 26.74-5.91-14.7-13.99-26.53-16.92-46.04-11.07-8.55 2.56-11.4 1.63-12.17-8.01-1.28-15.98-9.22-25.23-21.06-24.9-17.41.49-32.6 8.42-44.46 20.41-15.97 16.16-19.71 38.07-17.91 59.25 2.91 33.95 11.27 66.94 23.73 98.97z"/></g><path id="XMLID_104_" class="st0" d="M861.77 850.13c-.41 0-.83.01-1.25.02-20.55.69-40.8 18.16-48.14 41.53-3.78 12.01-3.2 22.1 1.6 28.43 3.77 4.96 10.13 7.38 18.46 7.16 20.55-.69 40.8-18.16 48.15-41.53 3.78-12 3.21-22.1-1.6-28.43-3.58-4.7-9.52-7.18-17.22-7.18z"/><path id="XMLID_231_" class="st0" d="M975 846.32c-.41 0-.83.01-1.25.02-20.55.7-40.8 18.17-48.15 41.53-3.78 12.01-3.21 22.1 1.6 28.43 3.77 4.96 10.14 7.38 18.47 7.16 20.55-.69 40.8-18.16 48.14-41.53 3.78-12.01 3.2-22.11-1.6-28.43-3.58-4.71-9.51-7.18-17.21-7.18z"/><path id="XMLID_243_" class="st0" d="M309.07 916.26c2.43-7.71 2.35-13.35-.24-16.76-2.92-3.84-9.81-5.61-19.8-5.36l-41.75 1.41-15.65 49.75 37.88-1.27c20.68-.7 33.99-10.04 39.56-27.77z"/><path id="XMLID_244_" class="st0" d="M324.88 836.81c-2.94-3.87-10.1-5.74-20.55-5.38l-37.26 1.26-14.83 47.15 33.39-1.12c20.9-.7 34.2-9.64 39.53-26.58 2.2-7.03 2.11-12.18-.28-15.33z"/><path id="XMLID_246_" class="st0" d="M767.37 889.55c3.78-12.01 3.2-22.1-1.6-28.43-3.58-4.71-9.51-7.18-17.21-7.18-.41 0-.83.01-1.25.02-20.55.69-40.8 18.16-48.15 41.53-3.78 12-3.21 22.1 1.6 28.42 3.77 4.96 10.15 7.35 18.47 7.16 20.54-.68 40.79-18.15 48.14-41.52z"/><path id="XMLID_253_" class="st1" d="M339.89 855.48c3.87-12.31 3.16-22.06-2.11-28.99-5.77-7.6-16.65-11.21-32.38-10.65l-49.53 1.66-45.31 144.07 57.89-1.95c28.4-.95 47.65-14.93 55.67-40.41 3.59-11.4 3.26-20.67-.98-27.55-1.57-2.55-3.63-4.71-6.16-6.47 10.93-6.39 18.74-16.47 22.91-29.71zm-92.6 40.07l41.75-1.41c9.99-.25 16.88 1.52 19.8 5.36 2.59 3.4 2.67 9.04.24 16.76-5.57 17.73-18.88 27.07-39.55 27.77l-37.88 1.27 15.64-49.75zm38.33-16.84l-33.39 1.12 14.83-47.15 37.26-1.26c10.46-.36 17.61 1.51 20.55 5.38 2.39 3.15 2.49 8.3.28 15.32-5.32 16.95-18.62 25.89-39.53 26.59z"/><path id="XMLID_255_" class="st1" d="M395.12 812.82l-16.14.54-45.31 144.06 93.94-3.16 4.95-15.72-77.81 2.62z"/><path id="XMLID_256_" class="st1" d="M599.28 805.95l-27.23.91-81.19 58.29L508.52 809l-16.14.54-45.31 144.07 16.14-.54 18.9-60.1 49.13 57.81 21.64-.73-59.11-68.82z"/><path id="XMLID_257_" class="st1" d="M693.04 857.77l4.88-15.52-31.08 1.05 4.22-13.42c2.91-9.27 8.99-20.4 21.37-20.82 4.49-.12 8.04 1.37 8.76 2.26l2.07 2.12 6.64-.2 3.97-12.67-2.86-2.36c-3.76-3.09-10.35-4.8-17.57-4.55-17.21.58-30.76 12.63-37.18 33.06l-5.38 17.11-17.43.58-4.88 15.52 17.42-.58-27.83 88.5 15.96-.54 27.84-88.5 31.08-1.04z"/><path id="XMLID_260_" class="st1" d="M718.21 946.47c28-.94 54.3-23.05 63.96-53.76 5.28-16.8 4-31.57-3.62-41.59-6.47-8.52-17.23-12.98-30.24-12.53-28 .94-54.3 23.05-63.96 53.77-5.28 16.8-4 31.57 3.62 41.59 6.18 8.14 16.26 12.56 28.5 12.56.57-.01 1.16-.02 1.74-.04zm-17.46-22.55c-4.81-6.33-5.38-16.42-1.6-28.42 7.35-23.37 27.6-40.84 48.15-41.53.42-.01.84-.02 1.25-.02 7.7 0 13.64 2.47 17.21 7.18 4.81 6.33 5.38 16.42 1.6 28.43-7.35 23.37-27.59 40.84-48.14 41.53-8.32.18-14.7-2.21-18.47-7.17z"/><path id="XMLID_263_" class="st1" d="M861.53 834.77c-28 .94-54.29 23.05-63.95 53.77-5.28 16.8-4 31.57 3.62 41.59 6.19 8.14 16.26 12.56 28.49 12.56.58 0 1.16-.01 1.74-.03 28-.94 54.3-23.05 63.96-53.76 5.28-16.8 4-31.57-3.61-41.59-6.48-8.53-17.25-13.02-30.25-12.54zm19.06 50.97c-7.35 23.37-27.6 40.84-48.15 41.53-8.34.23-14.69-2.2-18.46-7.16-4.81-6.33-5.38-16.42-1.6-28.43 7.35-23.37 27.59-40.84 48.14-41.53.42-.01.84-.02 1.25-.02 7.7 0 13.64 2.47 17.22 7.18 4.81 6.33 5.38 16.43 1.6 28.43z"/><path id="XMLID_266_" class="st1" d="M1005.4 843.99c-6.22-8.72-17.08-13.5-31-13.01-27.78.93-53.93 23.03-63.59 53.75-5.29 16.84-4.01 31.64 3.63 41.68 6.15 8.09 16.1 12.49 28.17 12.49.56 0 1.13-.01 1.7-.03 12.56-.42 24.92-4.99 35.46-12.79l-3.06 9.72 15.78-.53L1040.06 784l-15.96.54-18.7 59.45zm-11.58 37.94c-7.35 23.37-27.59 40.84-48.14 41.53-8.33.22-14.7-2.2-18.47-7.16-4.81-6.33-5.38-16.42-1.6-28.43 7.35-23.37 27.6-40.84 48.15-41.53.42-.01.84-.02 1.25-.02 7.7 0 13.63 2.47 17.21 7.18 4.8 6.33 5.37 16.43 1.6 28.43z"/></svg>