<?xml version="1.0" encoding="UTF-8"?>
<svg xmlns="http://www.w3.org/2000/svg" viewBox="0 0 512 512" width="512" height="512"><g id="solid_1" data-name="solid 1"><path d="M379.884,288.46l16.2,9.72a40.844,40.844,0,0,0,51.751-8.128l46.187-52.784a8,8,0,0,0,1.568-7.8l-8-24A8,8,0,0,0,480,200H456a8,8,0,0,0-8,8v12.155l-32.32,25.856-11.092-7.765-6.319-4.423A194.559,194.559,0,0,0,400,208a192.564,192.564,0,0,0-6.058-48H408a8,8,0,0,0,0-16h-8.228a36.082,36.082,0,0,0-24.441-30.162A192.06,192.06,0,0,0,208,16C102.131,16,16,102.131,16,208A192.057,192.057,0,0,0,163.1,394.708l-10.528,26.321a8,8,0,0,0,4.9,10.56l24,8a8,8,0,0,0,8.187-1.932l13.4-13.4,85.876,6.606q1.895.145,3.787.145a50.27,50.27,0,0,0,27.78-8.393l.475-.317a49.681,49.681,0,0,0,19.255-24.516l6.842-18.816L393.2,405.33,408,457.121V488a8,8,0,0,0,8,8h56a8,8,0,0,0,8-8.252l-.758-24a8,8,0,0,0-5.393-7.312L455.5,450.12l-6.152-67.674A38.123,38.123,0,0,0,431.053,353.3l-62.267-37.36,5.173-31.038ZM421,262.247l40-32A8,8,0,0,0,464,224v-8h10.234l4.727,14.182-43.168,49.334a24.844,24.844,0,0,1-31.478,4.944l-10.179-6.108,9.3-21.384,7.979,5.586A8,8,0,0,0,421,262.247Zm-45-44.012V198.976a22.716,22.716,0,0,0,7.51-4.031c.318,4.335.49,8.688.49,13.055,0,5.126-.23,10.261-.671,15.365ZM240,296h7.056l8,16H240Zm12.863-49.55,2.271-2.271,17.377,23.169,7.644,38.221a8.008,8.008,0,0,0,2.188,4.088L292.686,320l-6.266,6.266-8.457-4.229-28.21-56.42A16.684,16.684,0,0,1,248,258.191,16.5,16.5,0,0,1,252.863,246.45ZM248,376V328h15.056l1.789,3.578a8,8,0,0,0,3.577,3.577l16,8a8,8,0,0,0,9.235-1.5L307.313,328H320v48Zm80-64H307.313L295.37,300.056,294.558,296H328Zm-36.088-34.813-.657,2.3-2.36-11.8,5.935-3.955A106.367,106.367,0,0,1,291.912,277.187Zm-50.362-42.05A32.39,32.39,0,0,0,232,258.191a32.765,32.765,0,0,0,3.442,14.582L239.056,280H238a14.015,14.015,0,0,0-14,14v26a8,8,0,0,0,8,8v22a145.079,145.079,0,0,1-16,1.775V344a8,8,0,0,0-16,0v7.774a143.422,143.422,0,0,1-87.957-36.5l5.447-5.447a8,8,0,0,0-11.313-11.313l-5.447,5.447A143.422,143.422,0,0,1,64.226,216H72a8,8,0,0,0,0-16H64.226a143.422,143.422,0,0,1,36.5-87.957l5.447,5.447a8,8,0,0,0,11.313-11.313l-5.447-5.447A143.422,143.422,0,0,1,200,64.226V72a8,8,0,0,0,16,0V64.242a144.357,144.357,0,0,1,87.982,36.463l-5.472,5.472a8,8,0,1,0,11.313,11.313l5.48-5.48a143.7,143.7,0,0,1,15.837,21.313A35.788,35.788,0,0,0,328,148v44H297.941a31.791,31.791,0,0,0-22.627,9.373ZM344,160h32v17.242A6.766,6.766,0,0,1,369.242,184H368a8,8,0,0,0-8,8v15.035l-16-11.2ZM72.381,320.185A176.242,176.242,0,0,1,32,208c0-97.047,78.953-176,176-176a176.064,176.064,0,0,1,148.105,80.883,35.871,35.871,0,0,0-14.542,7A160.435,160.435,0,0,0,208,48C119.776,48,48,119.776,48,208s71.776,160,160,160a161.645,161.645,0,0,0,24-1.794V376H209.033l-27.957-7.345a8,8,0,0,0-9.461,4.766l-2.506,6.265A176.533,176.533,0,0,1,72.381,320.185ZM181.839,422.847l-11.26-3.753,13.267-33.168,14.475,3.8-5.545,22.181ZM463.743,480H424V464h22.662l16.758,5.769Zm-99.1-215.263a8,8,0,0,0-4.537,5.948L353.223,312H344V294a14.015,14.015,0,0,0-14-14H307.719A122.2,122.2,0,0,0,312,248a8,8,0,0,0-12.438-6.656l-17.7,11.8-15.3-20.4,20.064-20.064A15.9,15.9,0,0,1,297.941,208h35.537l56.579,39.6L380.3,270.05l-8.183-4.91A8,8,0,0,0,364.646,264.737Z"/><path d="M216,185.376V104a8,8,0,0,0-16,0v81.376a23.99,23.99,0,0,0-13.655,32.965l-32,32a8,8,0,0,0,11.314,11.314l32-32A24,24,0,1,0,216,185.376ZM208,216a8,8,0,1,1,8-8A8.009,8.009,0,0,1,208,216Z"/></g></svg>
